<?xml version="1.0" encoding="utf-8"?>
<!-- Generator: Adobe Illustrator 25.2.3, SVG Export Plug-In . SVG Version: 6.00 Build 0)  -->
<svg version="1.1" id="Camada_1" xmlns="http://www.w3.org/2000/svg" xmlns:xlink="http://www.w3.org/1999/xlink" x="0px" y="0px"
	 viewBox="0 0 394.6 332.2" style="enable-background:new 0 0 394.6 332.2;" xml:space="preserve">
<style type="text/css">
	.st0{fill:#ED1B35;}
</style>
<g>
	<path class="st0" d="M248.3,239c15.4,36.4,7.3,76.6-18,90.7c-10-15.4-24.7-25.3-40.8-32.9c-24.8-11.7-50-22.6-75.2-33.3
		c-30.4-12.9-58-29.8-78.1-56.6c-33.4-44.4-40-92.7-14.9-142.7C44,18.6,92.1-2.6,135.6,1.5c58.1,5.5,93,44.3,104,82.1
		c2.2,7.6,3.7,15.4,6,24.9c15.1-15.3,20.7-32.5,19.8-52.3C264.5,36,255,20.1,238.2,5.8c41-9.8,75.6-0.8,106.3,24.5
		c36.2,30,51.7,79.6,36.9,123.6C360.1,217.3,313.9,243.7,248.3,239z M169.3,192.6c6.6-18.1,6.8-46.6-1-61.5
		c-4.2-8-10.4-15.3-17.1-21.5c-7.6-7.2-17.7-9.4-28.3-8.5c-13.9,1.2-23.1,10.9-23.7,24.9c-0.4,9.8,3.2,18.3,9.1,25.7
		C124.3,171.7,146.1,182.9,169.3,192.6z"/>
</g>
</svg>
